<?xml version="1.0" encoding="utf-8"?>
<!-- Generator: Adobe Illustrator 15.1.0, SVG Export Plug-In . SVG Version: 6.00 Build 0)  -->
<!DOCTYPE svg PUBLIC "-//W3C//DTD SVG 1.1//EN" "http://www.w3.org/Graphics/SVG/1.1/DTD/svg11.dtd">
<svg version="1.1" id="Layer_1" xmlns="http://www.w3.org/2000/svg" xmlns:xlink="http://www.w3.org/1999/xlink" x="0px" y="0px"
	 width="543.78px" height="165.932px" viewBox="0 0 543.78 165.932" enable-background="new 0 0 543.78 165.932"
	 xml:space="preserve">
<path fill-rule="evenodd" clip-rule="evenodd" fill="#3EA9E0" d="M147.025,1.83h22.65h16.2c0.578,0,1.05,0.473,1.05,1.05V17.73
	c0,0.577-0.473,1.05-1.05,1.05h-15.15v12.15h12.079c0.578,0,1.05,0.473,1.05,1.05v13.743c0,0.577-0.474,1.051-1.05,1.051h-12.079
	V75.78c0,0.578-0.472,1.05-1.05,1.05h-22.65c-0.578,0-1.05-0.472-1.05-1.05V45.723V31.98V17.73V2.879
	C145.975,2.302,146.447,1.83,147.025,1.83L147.025,1.83z M59.474,1.83H1.297C0.583,1.83,0,2.414,0,3.126v72.407
	c0,0.713,0.583,1.296,1.297,1.296h58.177c0.713,0,1.296-0.583,1.296-1.296V3.126C60.77,2.414,60.187,1.83,59.474,1.83L59.474,1.83z
	 M519.001,1.105c13.904,2.545,23.264,14.026,20.843,25.509c-2.124,10.079-7.39,13.276-12.087,14.899l15.796,33.776
	c0.695,1.486-0.331,1.541-1.427,1.541h-24.296c-0.576,0-0.856-0.507-1.05-1.051l-11.654-32.657V75.78
	c0,0.578-0.472,1.051-1.05,1.051h-22.65c-0.576,0-1.05-0.473-1.05-1.051V6.412c0-1.372,1.095-2.038,1.702-2.302
	C491.584-0.621,508.948-0.735,519.001,1.105L519.001,1.105z M505.126,14.171v24.409h0.625c12.688-1.313,10.093-17.38,8.937-19.656
	C512.349,14.322,508.14,13.825,505.126,14.171L505.126,14.171z M362.55,5.091c0,0-11.75-5.976-22.75-4.219
	c-11,1.756-21.188,10.344-21.813,21.031s2.437,16.876,8.562,21.626s11.5,6.563,12.375,9.125c0.875,2.562,0,5.375-3.75,6.375
	c-3.75,0.999-11.188-2.844-11.188-2.844s-1.5-0.953-2.078,0.609s-4.235,14.609-4.235,14.609s-0.663,1.468,0.462,2.092
	c1.125,0.625,9.338,4.848,19.027,4.512c10.813-0.375,24.729-3.494,28.292-19.869s-8.698-24.18-13.438-26.938
	c-4.739-2.757-12.861-6.79-8.948-12.387c3.104-4.44,9.674-1.387,13.809,0.871c0.343,0.188,2.016,0.953,2.453-0.547
	s3.813-12.188,3.813-12.188S363.666,5.717,362.55,5.091L362.55,5.091z M250.059,1.83h18.068c0.578,0,1.05,0.473,1.05,1.05
	l18.274,29.227l0.938-0.5c-0.638-2.834-0.912-8.572-0.915-11.406L287.451,2.88c0-0.577,0.474-1.05,1.05-1.05h18.068
	c0.577,0,1.05,0.472,1.05,1.05V75.78c0,0.577-0.473,1.051-1.05,1.051h-15.175c-0.577,0-0.805-0.527-1.05-1.051l-0.307-0.651
	l0.015,0.24l-20.876-35.064l-0.938,0.5c0.639,2.833,0.913,8.572,0.916,11.406l0.022,23.569c0,0.576-0.473,1.05-1.05,1.05h-18.068
	c-0.578,0-1.05-0.472-1.05-1.05v-72.9C249.009,2.302,249.481,1.83,250.059,1.83L250.059,1.83z M383.02,1.831h22.65h10.975
	c0.578,0,1.051,0.473,1.051,1.05v14.85c0,0.577-0.474,1.05-1.051,1.05h-9.925v57c0,0.578-0.473,1.051-1.05,1.051h-22.65
	c-0.578,0-1.05-0.473-1.05-1.051v-57h-9.926c-0.576,0-1.05-0.472-1.05-1.05V2.88c0-0.578,0.473-1.05,1.05-1.05H383.02L383.02,1.831z
	 M428.98,1.83h22.65h16.2c0.577,0,1.05,0.473,1.05,1.05V17.73c0,0.577-0.473,1.05-1.05,1.05h-15.15v12.15h12.078
	c0.578,0,1.05,0.473,1.05,1.05v13.743c0,0.577-0.474,1.051-1.05,1.051H452.68V59.88h15.15c0.577,0,1.05,0.473,1.05,1.05v14.85
	c0,0.577-0.473,1.05-1.05,1.05h-16.2h-22.65h-0.027l-0.026-0.001l-0.027-0.002l-0.026-0.002l-0.026-0.004l-0.025-0.003l-0.026-0.005
	l0,0l-0.025-0.005l-0.025-0.005l0,0l-0.025-0.007l0,0l-0.025-0.007l-0.024-0.007l0,0l-0.024-0.008l0,0l-0.024-0.009l-0.023-0.01
	h-0.001l-0.023-0.01l0,0l-0.022-0.01h-0.001l-0.022-0.011l-0.022-0.012h-0.001l-0.021-0.012h-0.001l-0.021-0.013l0,0l-0.021-0.013
	h-0.001l-0.021-0.014l0,0l-0.021-0.014h-0.001l-0.02-0.015h-0.001l-0.02-0.015h-0.001l-0.02-0.016l0,0l-0.02-0.016l0,0l-0.02-0.017
	l0,0l-0.019-0.017l-0.019-0.018l0,0l-0.019-0.018l-0.018-0.018l-0.017-0.019l0,0l-0.017-0.019l-0.017-0.02l0,0l-0.016-0.02h-0.001
	l-0.015-0.021l0,0l-0.015-0.02l-0.015-0.021l-0.014-0.021h-0.001l-0.013-0.022l-0.013-0.021h-0.001l-0.012-0.022l-0.012-0.022
	l-0.012-0.022l-0.011-0.022l0,0l-0.011-0.023l-0.009-0.024l-0.01-0.023l-0.009-0.024l0,0l-0.008-0.024l-0.007-0.025l-0.007-0.024
	l-0.007-0.025l-0.005-0.025l-0.006-0.025l-0.004-0.026l-0.004-0.026l-0.003-0.026l-0.002-0.026l-0.002-0.026l-0.001-0.026V75.78
	V60.93V45.723V31.98V17.73V2.879C427.93,2.302,428.402,1.83,428.98,1.83L428.98,1.83z M198.051,1.83h22.65h16.201
	c0.578,0,1.05,0.473,1.05,1.05V17.73c0,0.577-0.473,1.05-1.05,1.05h-15.15v12.15h12.078c0.578,0,1.05,0.473,1.05,1.05v13.743
	c0,0.577-0.473,1.051-1.05,1.051h-12.078V59.88h15.15c0.578,0,1.05,0.473,1.05,1.05v14.85c0,0.577-0.473,1.05-1.05,1.05h-16.201
	h-22.65h-0.027l-0.027-0.001l-0.026-0.002l-0.026-0.002l-0.026-0.004l-0.026-0.003l-0.026-0.005l0,0l-0.025-0.005l-0.025-0.005h0
	l-0.025-0.007l0,0l-0.025-0.007l-0.025-0.007l0,0l-0.024-0.008l0,0l-0.024-0.009l-0.023-0.01h0l-0.023-0.01h0l-0.023-0.01l0,0
	l-0.023-0.011l-0.023-0.012l0,0l-0.022-0.012l0,0l-0.022-0.013l0,0l-0.022-0.013l0,0l-0.021-0.014l0,0l-0.021-0.014h0l-0.021-0.015
	l0,0l-0.021-0.015l0,0l-0.02-0.016l0,0l-0.02-0.016l0,0l-0.019-0.017h0l-0.019-0.017l-0.019-0.018h0l-0.018-0.018l-0.018-0.018
	l-0.017-0.019l0,0l-0.017-0.019l-0.016-0.02l0,0l-0.016-0.02h0l-0.015-0.021l0,0l-0.015-0.02l-0.015-0.021l-0.014-0.021h0
	l-0.013-0.022l-0.013-0.021l0,0l-0.012-0.022l-0.012-0.022l-0.012-0.022l-0.011-0.022l0,0l-0.01-0.023l-0.01-0.024l-0.009-0.023
	l-0.008-0.024l0,0l-0.008-0.024l-0.007-0.025l-0.007-0.024l-0.006-0.025l-0.005-0.025l-0.005-0.025l-0.004-0.026l-0.003-0.026
	l-0.003-0.026l-0.002-0.026l-0.002-0.026l-0.001-0.026l0-0.027V60.93V45.723V31.98V17.73V2.879
	C197.001,2.302,197.473,1.83,198.051,1.83z"/>
<g>
	<defs>
		<path id="SVGID_1_" d="M147.025,1.83h22.65h16.2c0.578,0,1.05,0.473,1.05,1.05V17.73c0,0.577-0.473,1.05-1.05,1.05h-15.15v12.15
			h12.079c0.578,0,1.05,0.473,1.05,1.05v13.743c0,0.577-0.474,1.051-1.05,1.051h-12.079V75.78c0,0.578-0.472,1.05-1.05,1.05h-22.65
			c-0.578,0-1.05-0.472-1.05-1.05V45.723V31.98V17.73V2.879C145.975,2.302,146.447,1.83,147.025,1.83L147.025,1.83z M59.474,1.83
			H1.297C0.583,1.83,0,2.414,0,3.126v72.407c0,0.713,0.583,1.296,1.297,1.296h58.177c0.713,0,1.296-0.583,1.296-1.296V3.126
			C60.77,2.414,60.187,1.83,59.474,1.83L59.474,1.83z M519.001,1.105c13.904,2.545,23.264,14.026,20.843,25.509
			c-2.124,10.079-7.39,13.276-12.087,14.899l15.796,33.776c0.695,1.486-0.331,1.541-1.427,1.541h-24.296
			c-0.576,0-0.856-0.507-1.05-1.051l-11.654-32.657V75.78c0,0.578-0.472,1.051-1.05,1.051h-22.65c-0.576,0-1.05-0.473-1.05-1.051
			V6.412c0-1.372,1.095-2.038,1.702-2.302C491.584-0.621,508.948-0.735,519.001,1.105L519.001,1.105z M505.126,14.171v24.409h0.625
			c12.688-1.313,10.093-17.38,8.937-19.656C512.349,14.322,508.14,13.825,505.126,14.171L505.126,14.171z M362.55,5.091
			c0,0-11.75-5.976-22.75-4.219c-11,1.756-21.188,10.344-21.813,21.031s2.437,16.876,8.562,21.626s11.5,6.563,12.375,9.125
			c0.875,2.562,0,5.375-3.75,6.375c-3.75,0.999-11.188-2.844-11.188-2.844s-1.5-0.953-2.078,0.609s-4.235,14.609-4.235,14.609
			s-0.663,1.468,0.462,2.092c1.125,0.625,9.338,4.848,19.027,4.512c10.813-0.375,24.729-3.494,28.292-19.869
			s-8.698-24.18-13.438-26.938c-4.739-2.757-12.861-6.79-8.948-12.387c3.104-4.44,9.674-1.387,13.809,0.871
			c0.343,0.188,2.016,0.953,2.453-0.547s3.813-12.188,3.813-12.188S363.666,5.717,362.55,5.091L362.55,5.091z M250.059,1.83h18.068
			c0.578,0,1.05,0.473,1.05,1.05l18.274,29.227l0.938-0.5c-0.638-2.834-0.912-8.572-0.915-11.406L287.451,2.88
			c0-0.577,0.474-1.05,1.05-1.05h18.068c0.577,0,1.05,0.472,1.05,1.05V75.78c0,0.577-0.473,1.051-1.05,1.051h-15.175
			c-0.577,0-0.805-0.527-1.05-1.051l-0.307-0.651l0.015,0.24l-20.876-35.064l-0.938,0.5c0.639,2.833,0.913,8.572,0.916,11.406
			l0.022,23.569c0,0.576-0.473,1.05-1.05,1.05h-18.068c-0.578,0-1.05-0.472-1.05-1.05v-72.9
			C249.009,2.302,249.481,1.83,250.059,1.83L250.059,1.83z M383.02,1.831h22.65h10.975c0.578,0,1.051,0.473,1.051,1.05v14.85
			c0,0.577-0.474,1.05-1.051,1.05h-9.925v57c0,0.578-0.473,1.051-1.05,1.051h-22.65c-0.578,0-1.05-0.473-1.05-1.051v-57h-9.926
			c-0.576,0-1.05-0.472-1.05-1.05V2.88c0-0.578,0.473-1.05,1.05-1.05H383.02L383.02,1.831z M428.98,1.83h22.65h16.2
			c0.577,0,1.05,0.473,1.05,1.05V17.73c0,0.577-0.473,1.05-1.05,1.05h-15.15v12.15h12.078c0.578,0,1.05,0.473,1.05,1.05v13.743
			c0,0.577-0.474,1.051-1.05,1.051H452.68V59.88h15.15c0.577,0,1.05,0.473,1.05,1.05v14.85c0,0.577-0.473,1.05-1.05,1.05h-16.2
			h-22.65h-0.027l-0.026-0.001l-0.027-0.002l-0.026-0.002l-0.026-0.004l-0.025-0.003l-0.026-0.005l0,0l-0.025-0.005l-0.025-0.005
			l0,0l-0.025-0.007l0,0l-0.025-0.007l-0.024-0.007l0,0l-0.024-0.008l0,0l-0.024-0.009l-0.023-0.01h-0.001l-0.023-0.01l0,0
			l-0.022-0.01h-0.001l-0.022-0.011l-0.022-0.012h-0.001l-0.021-0.012h-0.001l-0.021-0.013l0,0l-0.021-0.013h-0.001l-0.021-0.014
			l0,0l-0.021-0.014h-0.001l-0.02-0.015h-0.001l-0.02-0.015h-0.001l-0.02-0.016l0,0l-0.02-0.016l0,0l-0.02-0.017l0,0l-0.019-0.017
			l-0.019-0.018l0,0l-0.019-0.018l-0.018-0.018l-0.017-0.019l0,0l-0.017-0.019l-0.017-0.02l0,0l-0.016-0.02h-0.001l-0.015-0.021l0,0
			l-0.015-0.02l-0.015-0.021l-0.014-0.021h-0.001l-0.013-0.022l-0.013-0.021h-0.001l-0.012-0.022l-0.012-0.022l-0.012-0.022
			l-0.011-0.022l0,0l-0.011-0.023l-0.009-0.024l-0.01-0.023l-0.009-0.024l0,0l-0.008-0.024l-0.007-0.025l-0.007-0.024l-0.007-0.025
			l-0.005-0.025l-0.006-0.025l-0.004-0.026l-0.004-0.026l-0.003-0.026l-0.002-0.026l-0.002-0.026l-0.001-0.026V75.78V60.93V45.723
			V31.98V17.73V2.879C427.93,2.302,428.402,1.83,428.98,1.83L428.98,1.83z M198.051,1.83h22.65h16.201c0.578,0,1.05,0.473,1.05,1.05
			V17.73c0,0.577-0.473,1.05-1.05,1.05h-15.15v12.15h12.078c0.578,0,1.05,0.473,1.05,1.05v13.743c0,0.577-0.473,1.051-1.05,1.051
			h-12.078V59.88h15.15c0.578,0,1.05,0.473,1.05,1.05v14.85c0,0.577-0.473,1.05-1.05,1.05h-16.201h-22.65h-0.027l-0.027-0.001
			l-0.026-0.002l-0.026-0.002l-0.026-0.004l-0.026-0.003l-0.026-0.005l0,0l-0.025-0.005l-0.025-0.005h0l-0.025-0.007l0,0
			l-0.025-0.007l-0.025-0.007l0,0l-0.024-0.008l0,0l-0.024-0.009l-0.023-0.01h0l-0.023-0.01h0l-0.023-0.01l0,0l-0.023-0.011
			l-0.023-0.012l0,0l-0.022-0.012l0,0l-0.022-0.013l0,0l-0.022-0.013l0,0l-0.021-0.014l0,0l-0.021-0.014h0l-0.021-0.015l0,0
			l-0.021-0.015l0,0l-0.02-0.016l0,0l-0.02-0.016l0,0l-0.019-0.017h0l-0.019-0.017l-0.019-0.018h0l-0.018-0.018l-0.018-0.018
			l-0.017-0.019l0,0l-0.017-0.019l-0.016-0.02l0,0l-0.016-0.02h0l-0.015-0.021l0,0l-0.015-0.02l-0.015-0.021l-0.014-0.021h0
			l-0.013-0.022l-0.013-0.021l0,0l-0.012-0.022l-0.012-0.022l-0.012-0.022l-0.011-0.022l0,0l-0.01-0.023l-0.01-0.024l-0.009-0.023
			l-0.008-0.024l0,0l-0.008-0.024l-0.007-0.025l-0.007-0.024l-0.006-0.025l-0.005-0.025l-0.005-0.025l-0.004-0.026l-0.003-0.026
			l-0.003-0.026l-0.002-0.026l-0.002-0.026l-0.001-0.026l0-0.027V60.93V45.723V31.98V17.73V2.879
			C197.001,2.302,197.473,1.83,198.051,1.83z"/>
	</defs>
	<clipPath id="SVGID_2_">
		<use xlink:href="#SVGID_1_"  overflow="visible"/>
	</clipPath>
</g>
<g>
	<path fill="#ADB8C5" d="M133.03,88.802h-18.734c-0.597,0-1.089,0.473-1.088,1.05l0.023,17.319
		c0.003,2.834,0.287,8.572,0.949,11.406l-0.972,0.5L94.259,89.852c0-0.578-0.489-1.051-1.088-1.051H74.437
		c-0.599,0-1.088,0.473-1.088,1.051v72.899c0,0.578,0.49,1.05,1.088,1.05h18.734c0.598,0,1.089-0.473,1.088-1.05l-0.022-23.569
		c-0.002-2.834-0.288-8.573-0.949-11.406l0.972-0.5l21.646,35.064l-0.015-0.24l0.317,0.651c0.254,0.523,0.491,1.05,1.089,1.05
		h15.734c0.599,0,1.089-0.473,1.089-1.05V89.852C134.119,89.274,133.628,88.802,133.03,88.802z"/>
	<path fill="#ADB8C5" d="M261.344,128.485c4.698-1.623,9.963-4.82,12.088-14.899c2.42-11.482-6.939-22.964-20.844-25.509
		c-10.054-1.84-27.417-1.725-36.922,3.006c-0.608,0.263-1.702,0.93-1.702,2.301v69.368c0,0.578,0.473,1.05,1.05,1.05h22.65
		c0.578,0,1.05-0.472,1.05-1.05v-32.657l11.653,32.657c0.194,0.544,0.474,1.05,1.05,1.05h24.296c1.096,0,2.122-0.054,1.427-1.54
		L261.344,128.485z M239.339,125.552h-0.625v-24.409c3.013-0.347,7.222,0.15,9.561,4.753
		C249.431,108.172,252.026,124.24,239.339,125.552z"/>
	<path fill="#ADB8C5" d="M356.678,89.852c-0.049-0.576-0.473-1.05-1.05-1.05h-21.308c-0.476,0-0.946,0.328-1.043,0.76
		l-10.221,36.972c-0.17,0.617-0.832,0.882-1.255,0.148c-0.422-0.734-10.792-36.83-10.792-36.83c-0.17-0.634-0.473-1.05-1.05-1.05
		h-21.307c-0.578,0-1.002,0.474-1.05,1.05l-6.094,72.899c-0.048,0.576,0.473,1.05,1.05,1.05h18.025c0.577,0,1.019-0.474,1.05-1.05
		l1.111-19.979c0.193-3.471-0.3-14.668-0.528-16.804l0.924-0.158l12.276,36.527c0,0,0.438,1.464,1.391,1.464s9.963,0,10.26,0
		s0.72-0.104,1.251-1.651s11.525-37.656,11.525-37.656l0.739,0.353c-0.249,2.332-0.369,4.938-0.36,7.711l0.105,30.194
		c0.001,0.573,0.474,1.05,1.05,1.05h20.342c0.577,0,1.099-0.474,1.05-1.05L356.678,89.852z"/>
	<path fill="#ADB8C5" d="M173.467,88.021c-7.632,0-15.069,3.188-20.4,9.106c-6.563,7.286-10.194,18.487-10.194,30.239
		c0,9.772,2.402,19.072,7.188,25.868c5.644,8.016,14.409,12.697,23.625,12.697c9.32,0,18.856-4.361,24.504-12.536
		c4.67-6.761,6.808-16.388,6.808-26.029c0-10.804-2.077-20.509-7.793-27.509C191.651,93.058,183.826,88.021,173.467,88.021z
		 M178.965,142.294c-1.171,4.739-3.149,7.268-5.082,7.268c-1.911,0-3.729-2.714-4.899-7.361c-0.993-3.94-1.491-9.332-1.491-14.998
		c0-6.813,0.753-13.308,2.114-17.532c1.105-3.432,2.648-5.28,4.231-5.28c2.148,0,3.771,2.921,4.923,6.863
		c1.186,4.059,1.616,9.686,1.616,15.949C180.377,132.792,179.934,138.375,178.965,142.294z"/>
	<path fill="#ADB8C5" d="M59.474,88.801H1.297C0.583,88.801,0,89.385,0,90.098v72.407c0,0.713,0.583,1.296,1.297,1.296h58.177
		c0.713,0,1.296-0.583,1.296-1.296V90.098C60.77,89.385,60.187,88.801,59.474,88.801z"/>
	<path fill="#ADB8C5" d="M132.822,1.83H74.646c-0.714,0-1.297,0.584-1.297,1.297v72.407c0,0.713,0.583,1.296,1.297,1.296h58.176
		c0.713,0,1.297-0.583,1.297-1.296V3.126C134.119,2.414,133.535,1.83,132.822,1.83z"/>
</g>
</svg>
